<svg width="117" height="194" viewBox="0 0 117 194" fill="none" xmlns="http://www.w3.org/2000/svg">
<path d="M116.085 56.9298C115.166 50.9758 114.247 45.0084 113.328 39.0543C112.276 44.4223 111.223 49.7769 110.171 55.1449C108.573 57.5292 106.961 59.9135 105.363 62.2978C104.47 54.6787 103.591 47.0597 102.699 39.4539C105.083 35.0583 107.467 30.676 109.851 26.2804C106.402 17.5158 102.952 8.76458 99.5151 0C100.354 8.72462 101.207 17.4626 102.046 26.1872C99.6483 30.0233 97.2507 33.8595 94.8664 37.6957C96.4914 56.0374 98.1298 74.3657 99.7548 92.7074C96.8377 100.167 93.9073 107.626 90.9902 115.098C96.9443 107.16 102.898 99.2209 108.852 91.2688C108.346 85.3148 107.853 79.3607 107.347 73.4067C110.264 67.9188 113.181 62.431 116.098 56.9431L116.085 56.9298Z" fill="#674428"/>
<path d="M87.8743 88.5518C89.7391 84.8621 91.604 81.1725 93.4554 77.4828C92.6296 65.4682 91.7904 53.4668 90.9646 41.4521C87.8077 47.5128 84.6509 53.5867 81.5074 59.6473C77.9376 61.8718 74.3812 64.1095 70.8114 66.334C64.9639 89.2711 59.1164 112.208 53.2822 135.145C64.6709 129.098 76.0462 123.051 87.4348 117.003C90.0588 108.585 92.6695 100.167 95.2803 91.7486C92.8161 90.683 90.3385 89.6174 87.8743 88.5518ZM81.5606 112.914C75.9263 115.671 70.2919 118.415 64.6442 121.173C66.8154 114.646 68.9865 108.132 71.1577 101.605C75.0072 99.4742 78.8567 97.343 82.7195 95.2251C83.8517 95.6913 84.9706 96.1575 86.1028 96.6237C84.5843 102.058 83.0791 107.493 81.5606 112.927V112.914ZM79.3628 87.8858C77.1118 89.1245 74.8607 90.3633 72.6229 91.6021C74.2879 84.9687 75.9396 78.3486 77.6046 71.7153C80.2153 69.7173 82.826 67.7192 85.4235 65.7212C85.6765 69.0912 85.9296 72.4612 86.1827 75.8311C83.905 79.8538 81.6272 83.8764 79.3495 87.8991L79.3628 87.8858Z" fill="#674428"/>
<path d="M49.3507 138.328C44.6754 135.078 40.0134 131.841 35.338 128.591C35.338 128.591 35.3247 128.605 35.3114 128.618L25.6277 121.878L30.2498 134.852C20.1665 153.3 10.0833 171.735 0 190.183C1.31868 191.129 2.65069 192.074 3.96937 193.02C18.0087 176.57 32.048 160.12 46.1006 143.669L56.7566 143.523L49.3507 138.381C49.3507 138.381 49.3507 138.355 49.3507 138.341V138.328Z" fill="#674428"/>
<path d="M59.0337 64.5097C54.5048 82.0655 49.9627 99.6213 45.4339 117.19C43.0763 119.854 40.7319 122.505 38.3743 125.169C42.3836 128.073 46.3929 130.977 50.4023 133.88C55.97 110.224 61.5511 86.5544 67.1189 62.898C70.4356 60.9666 73.7656 59.0352 77.0823 57.0905C82.4103 48.5257 87.725 39.9476 93.053 31.3828C85.6204 37.8031 78.2012 44.2366 70.7686 50.6569C61.6444 54.2799 52.5202 57.9163 43.4093 61.5394C41.6111 77.0306 39.8129 92.5217 38.0146 108.013C41.9574 95.1058 45.9001 82.1854 49.8428 69.2783C52.9064 67.6932 55.97 66.0948 59.0337 64.5097Z" fill="#674428"/>
</svg>
