<svg width="283" height="283" viewBox="0 0 283 283" fill="none" xmlns="http://www.w3.org/2000/svg">
<path d="M283 141.5C283 219.648 219.648 283 141.5 283C63.3517 283 0 219.648 0 141.5C0 63.3517 63.3517 0 141.5 0C219.648 0 283 63.3517 283 141.5Z" fill="#674428"/>
<path d="M190.1 103.371C189.181 97.4168 188.262 91.4494 187.343 85.4953C186.291 90.8633 185.239 96.218 184.186 101.586C182.588 103.97 180.976 106.355 179.378 108.739C178.485 101.12 177.606 93.5007 176.714 85.895C179.098 81.4993 181.482 77.1171 183.867 72.7214C180.417 63.9569 176.967 55.2056 173.53 46.441C174.369 55.1656 175.222 63.9036 176.061 72.6282C173.663 76.4644 171.266 80.3005 168.882 84.1367C170.507 102.478 172.145 120.807 173.77 139.148C170.853 146.608 167.922 154.067 165.005 161.539C170.959 153.601 176.914 145.662 182.868 137.71C182.361 131.756 181.869 125.802 181.362 119.848C184.279 114.36 187.197 108.872 190.114 103.384L190.1 103.371Z" fill="#EED9BF"/>
<path d="M161.89 134.993C163.754 131.303 165.619 127.614 167.471 123.924C166.645 111.909 165.806 99.9079 164.98 87.8933C161.823 93.9539 158.666 100.028 155.523 106.088C151.953 108.313 148.396 110.551 144.827 112.775C138.979 135.712 133.132 158.649 127.298 181.586C138.686 175.539 150.061 169.492 161.45 163.444C164.074 155.026 166.685 146.608 169.296 138.19C166.831 137.124 164.354 136.058 161.89 134.993ZM155.576 159.355C149.942 162.112 144.307 164.856 138.66 167.614C140.831 161.087 143.002 154.573 145.173 148.047C149.023 145.915 152.872 143.784 156.735 141.666C157.867 142.132 158.986 142.599 160.118 143.065C158.6 148.499 157.094 153.934 155.576 159.369V159.355ZM153.378 134.327C151.127 135.566 148.876 136.804 146.638 138.043C148.303 131.41 149.955 124.79 151.62 118.156C154.231 116.158 156.841 114.16 159.439 112.162C159.692 115.532 159.945 118.902 160.198 122.272C157.92 126.295 155.643 130.318 153.365 134.34L153.378 134.327Z" fill="#EED9BF"/>
<path d="M123.366 184.769C118.691 181.519 114.029 178.282 109.353 175.032C109.353 175.032 109.34 175.046 109.327 175.059L99.6431 168.319L104.265 181.293C94.1819 199.741 84.0986 218.176 74.0154 236.624C75.3341 237.57 76.6661 238.516 77.9848 239.461C92.0241 223.011 106.063 206.561 120.116 190.111L130.772 189.964L123.366 184.822C123.366 184.822 123.366 184.796 123.366 184.783V184.769Z" fill="#EED9BF"/>
<path d="M133.05 110.951C128.521 128.506 123.979 146.062 119.45 163.631C117.092 166.295 114.748 168.946 112.39 171.61C116.4 174.514 120.409 177.417 124.418 180.321C129.986 156.665 135.567 132.995 141.135 109.339C144.452 107.407 147.782 105.476 151.098 103.531C156.426 94.9665 161.741 86.3884 167.069 77.8236C159.637 84.2438 152.217 90.6774 144.785 97.0977C135.66 100.721 126.536 104.357 117.425 107.98C115.627 123.471 113.829 138.963 112.031 154.454C115.973 141.547 119.916 128.626 123.859 115.719C126.923 114.134 129.986 112.536 133.05 110.951Z" fill="#EED9BF"/>
</svg>
