<svg width="107" height="123" viewBox="0 0 107 123" fill="none" xmlns="http://www.w3.org/2000/svg">
<path d="M101.99 33.9863C103.66 25.5411 105.33 17.0959 107 8.67123C100.032 7.4589 93.0426 6.24658 86.0742 5.03425C84.3424 8.19863 82.6312 11.363 80.8994 14.5068C81.1056 9.84247 81.3118 5.19863 81.5179 0.534247C63.7877 0.349315 46.0574 0.184932 28.3478 0C28.2653 6.41096 28.2035 12.8014 28.121 19.2123C26.6985 13.3973 25.2965 7.60274 23.874 1.78767C16.2459 2.65068 8.59711 3.49315 0.968979 4.35616C0.639114 13.2123 0.329865 22.0685 0 30.9247C8.82389 36.0411 17.6478 41.1575 26.4923 46.2534L26.2655 52.6644L53.3351 71.0548C53.3351 71.0548 42.2227 82.1301 42.1403 83.0548C42.0784 83.9794 42.9443 85.4384 43.4803 86.1575C44.0164 86.8767 51.6651 94.4178 51.6651 94.4178C42.8412 103.952 34.0173 113.466 25.1728 123C45.7482 122.959 66.3235 122.918 86.8988 122.877C77.4152 113.24 67.9316 103.603 58.4274 93.9658C62.262 89.6918 66.0761 85.4178 69.9108 81.1233L65.2721 76.6233C65.2721 76.6233 60.9013 73.3767 60.4065 72.9452C59.9118 72.5137 59.4788 71.5274 59.7056 70.8699C60.221 69.2671 64.7979 66.4931 63.3341 67.3151C63.3341 67.3151 68.5913 63.9247 79.0233 57.226C79.5387 52.4795 80.0748 47.7123 80.6108 42.9658C87.7441 39.9658 94.8981 36.9658 102.031 33.9658L101.99 33.9863ZM27.0283 40.6644C19.7919 36.3288 12.5349 31.9932 5.29846 27.6575C5.33969 21.1644 5.40154 14.6507 5.44277 8.15753C10.7206 7.86986 15.9985 7.58219 21.2557 7.29452C22.6164 12.2671 23.9771 17.2397 25.3378 22.2123C21.8742 22.5411 18.4106 22.8904 14.9264 23.2192C14.6171 21.1027 14.2873 18.9658 13.978 16.8493C14.947 16.6233 15.916 16.3973 16.9056 16.1712C17.0499 17.2192 17.1942 18.2671 17.3592 19.3151C18.7611 19.1507 20.1424 18.9658 21.5443 18.8014L19.0703 11.5068C15.9572 12 12.8441 12.4932 9.73102 12.9863C9.81349 17.6712 9.91657 22.3562 9.99904 27.0411C15.9572 26.9178 21.936 26.774 27.8942 26.6507C27.6056 31.3151 27.317 36 27.0283 40.6644ZM75.0443 118.767C61.9528 118.623 48.8819 118.459 35.7904 118.315C41.9135 111.658 48.0366 105.021 54.1597 98.363L75.0443 118.767ZM62.3239 81.1027L54.8195 89.548C52.6341 87.4932 50.4487 85.4384 48.2428 83.3836C50.758 80.6712 53.2938 77.9589 55.8091 75.2671C57.9738 77.2192 60.1591 79.1712 62.3239 81.1233V81.1027ZM73.2094 54.226C67.5605 58.089 61.9116 61.9521 56.2626 65.8151C48.2015 60.4315 40.1198 55.0479 32.0588 49.6644C32.3062 34.7671 32.5742 19.8493 32.8422 4.95205C47.2532 4.95205 61.6848 4.95205 76.0958 4.93151C75.1268 21.3699 74.1578 37.8082 73.2094 54.226ZM79.0233 38.5274C79.6624 34.6438 80.3015 30.7603 80.92 26.8767L94.7331 29.1164C95.7433 24.7603 96.7329 20.4041 97.7432 16.0479L88.7543 14.3219L86.569 21.0205L89.7439 21.8425C90.2181 20.5479 90.6923 19.274 91.1665 17.9795C92.2385 18.2877 93.3106 18.5753 94.4033 18.8836L92.321 24.9658C89.043 24.1027 85.7855 23.2397 82.5075 22.3767C84.4455 18.3288 86.3834 14.3014 88.3214 10.2534C92.9807 11.0342 97.6401 11.8151 102.299 12.5959C100.959 18.8425 99.6399 25.089 98.2998 31.3356C91.8881 33.7397 85.4557 36.1233 79.0439 38.5274H79.0233Z" fill="black"/>
</svg>
