<svg width="98" height="99" viewBox="0 0 98 99" fill="none" xmlns="http://www.w3.org/2000/svg">
<path d="M49.1322 0.0559339C66.5556 -0.802966 85.802 8.27684 93.0413 24.0526C98.8257 36.6556 98.2473 48.1894 97.6163 53.0974C97.2482 56.0422 95.4427 68.3122 85.9072 80.2141C82.5242 84.456 76.7573 91.6428 66.3453 95.6042C58.3873 98.6367 51.5336 98.4263 46.0297 98.0757C28.7114 96.989 18.8078 92.8873 8.88661 78.9345C-1.7357 64.0177 -3.33081 39.3901 6.80071 23.9649C17.3704 7.85615 29.0445 1.03753 49.1322 0.0559339ZM50.6572 7.54064C51.2181 6.41881 51.2882 2.21195 50.0963 1.80879C46.7308 1.56339 43.3303 2.14183 40.07 2.86051C39.6317 2.94815 39.3162 2.94815 39.1409 3.43895L40.2452 8.29436C43.5757 6.92714 47.1515 7.47052 50.6747 7.52311L50.6572 7.54064ZM62.6468 9.76677L64.1016 4.57831C64.014 4.29785 63.8212 4.12256 63.6108 3.92975C62.8571 3.21108 55.1445 1.75621 53.8474 1.75621C53.3917 1.75621 53.0236 1.73868 52.7256 2.12431L53.2865 7.78604C56.5468 7.92627 59.5793 8.75011 62.6468 9.74924V9.76677ZM37.9315 8.99551C38.3346 7.68087 37.651 4.42055 36.2137 4.01739C35.0918 3.68435 28.3083 5.71766 27.9402 6.75185C27.3267 8.48718 28.466 11.3794 30.3766 11.9228L37.9315 9.01304V8.99551ZM72.0246 13.0446C71.9895 11.4145 75.1271 9.73171 74.4786 8.32942C73.9878 7.26018 67.3094 4.31538 66.4154 4.84124C65.7668 5.22686 64.5048 9.73171 64.9781 10.4504L72.0246 13.0446ZM23.2951 8.73258C22.4713 8.96045 16.6167 13.5529 16.3538 14.3943C15.8805 15.9368 17.9664 17.7949 19.0882 18.7765L27.1339 13.588C25.8543 12.4136 25.3635 8.17166 23.2776 8.75011L23.2951 8.73258ZM43.5231 9.13574C37.6685 9.81935 23.5405 16.1998 19.5265 20.3365C5.11797 35.1131 5.43348 58.654 15.8805 75.4288C25.8367 91.4324 50.0788 92.8347 66.0824 85.1922C87.4146 75.0257 95.9335 38.8993 79.8949 21.2129C72.8133 13.3952 53.9876 7.89121 43.5406 9.13574H43.5231ZM74.3033 14.4469C75.5828 15.0078 77.2481 16.042 78.3524 16.8834C81.5601 19.2673 81.2796 21.3181 85.4339 17.1463C85.8371 15.7791 84.0141 14.2366 83.0676 13.3952C82.5066 12.8869 77.7038 9.53889 77.3708 9.45125C75.8984 9.06562 73.8475 13.8159 74.3208 14.4469H74.3033ZM14.2854 16.6906C13.7596 16.7957 8.86908 23.4391 8.92167 24.1227L12.3923 26.8221L17.3704 20.7572C17.4756 19.9859 15.0742 16.5153 14.2854 16.673V16.6906ZM86.8011 18.2155C86.5733 18.2155 83.4181 20.5644 83.2253 20.8273C82.2437 22.0718 83.7336 22.51 84.3121 23.4566C85.0483 24.6485 87.5549 29.6266 88.2911 30.17C89.0273 30.7134 92.3051 30.1174 92.235 28.5399C92.1649 26.9623 88.4313 18.3558 86.8187 18.2331L86.8011 18.2155ZM7.30904 39.9334C7.06364 36.8659 11.1829 32.291 11.3231 29.8896C11.4283 28.0491 7.76478 25.0517 6.83577 26.5767C5.83664 28.2419 1.13898 38.1631 2.87431 39.1622L7.30904 39.9334ZM95.583 43.93C95.9861 42.0193 94.2858 31.7125 92.7083 31.2393L89.2201 32.1157L88.9046 32.7643C89.5005 34.0614 89.7284 35.4987 89.9212 36.901C90.0965 38.1806 90.2543 42.6153 90.5347 43.2113C91.1833 44.4909 94.3034 43.7547 95.583 43.93ZM6.94094 52.6592C5.73147 49.802 7.32657 44.7012 6.50273 42.0018C6.1171 40.7573 3.45275 40.4768 2.33092 40.7047C1.68237 40.8975 1.75248 41.4058 1.6999 41.9142C1.31427 45.0693 2.17317 48.5049 2.17317 51.6776C2.61138 53.1675 5.53865 52.0282 6.95847 52.6592H6.94094ZM90.3419 45.7529C90.2543 47.2604 90.4646 48.8029 90.3419 50.2928C90.2543 51.4322 89.4304 54.9204 89.6408 55.6741C89.9563 56.831 93.164 57.0063 94.2508 57.7425C96.214 54.4296 95.1097 50.3279 95.916 46.6995C95.618 45.7705 91.3586 45.6828 90.3244 45.7529H90.3419ZM8.8165 63.562C7.99266 60.3542 6.71307 57.4971 6.76565 54.0965L2.8042 54.2718C1.8226 54.9379 3.45275 64.5436 4.50447 64.6137L8.8165 63.562ZM86.2753 66.4191L90.7275 68.1194C91.2008 67.8039 93.7249 61.143 93.6899 60.4419C93.6198 59.3726 89.8862 57.725 89.0097 58.4261C88.3612 59.7933 85.5391 65.2973 86.2753 66.4191ZM9.1846 65.0168L4.67975 65.9809C4.34671 67.243 8.02771 74.3245 8.65874 74.4647L11.6912 72.484L9.1846 65.0168ZM81.8756 78.6891C82.1035 78.8294 82.3314 79.0046 82.3314 79.0046C82.7696 79.2676 83.1552 79.4253 83.4356 79.513C84.575 78.1457 85.767 76.5156 86.9414 74.64C87.9405 73.0449 88.7643 71.5199 89.4304 70.1001L84.7678 67.9441L80.3156 76.1825C80.0526 76.9363 81.3147 78.321 81.8756 78.6891ZM16.2837 83.9126C18.1066 80.9328 17.1952 81.7216 15.9857 79.6707C15.3897 78.6716 13.742 74.8153 12.7604 74.8153C12.182 74.8153 9.95586 76.0423 9.93833 76.8136C9.9208 77.5848 14.4607 82.9661 15.3547 83.5621C15.6702 83.7724 15.7403 84.0529 16.2837 83.9126ZM74.6889 86.7698C74.8291 87.0678 74.9869 87.3658 75.1271 87.6638C75.986 87.1028 76.9501 86.3842 77.9142 85.5077C79.5618 84.0003 80.7362 82.4578 81.525 81.1957C81.2446 80.8276 80.8064 80.3018 80.1929 79.7759C79.7722 79.4253 79.1937 78.9521 78.8607 78.8644C77.7389 78.5664 74.6889 82.7032 73.1113 83.0888L72.936 83.9477L74.6714 86.7873L74.6889 86.7698ZM19.1584 83.2466C18.2995 83.4043 17.09 85.0345 17.5983 86.0862C17.9314 86.8049 23.2075 90.9416 23.7859 90.6611L25.6439 87.3833C24.5747 86.8925 19.6667 83.1414 19.1584 83.229V83.2466ZM70.8501 85.0345C67.8527 86.2439 65.2235 88.2948 61.9456 89.031C61.8054 89.662 63.5407 93.7812 63.7511 93.939C64.9605 94.8154 72.2875 90.3106 72.9536 88.9959C73.4619 87.9793 71.078 86.1388 70.8326 85.0345H70.8501ZM26.0646 91.8706C29.6755 93.5008 33.4967 94.3947 37.3881 95.1485L38.3346 92.0634L37.7387 91.2396C34.0051 91.8531 31.0603 89.5218 27.7474 88.2422C27.2741 89.066 25.5037 90.9767 26.0646 91.8706ZM52.673 95.8146C53.7072 96.7611 59.9474 96.095 61.2795 95.464C61.6476 95.2887 61.9807 95.1835 61.858 94.7103L59.8597 90.4508C59.4916 89.9425 58.9482 90.0652 58.4048 90.1002C56.5468 90.2229 54.0578 91.187 51.9894 91.1344C51.4635 92.0459 51.8667 95.0608 52.6555 95.797L52.673 95.8146ZM47.2567 91.6603C46.0823 91.7479 40.4906 91.8881 40.2102 92.081C39.6493 92.4666 39.7369 94.237 40.0524 94.8329C40.4381 95.5867 42.5415 95.7795 43.4705 95.8671C44.2418 95.9548 49.4127 96.3229 49.7282 96.2352C50.7273 95.9197 49.7808 92.3789 49.4302 91.9232C48.9219 91.2747 47.9753 91.6252 47.2917 91.6778L47.2567 91.6603Z" fill="black"/>
<path d="M76.5483 27.8915C77.8805 29.6093 81.8069 35.0432 82.9813 43.0538C83.1742 44.3509 83.8578 49.6445 82.2451 56.1476C82.2451 56.1476 81.7018 58.1984 81.0006 60.1091C74.0593 79.3379 53.3405 91.2573 32.9723 82.7735C19.3877 77.0943 12.3236 61.932 13.0073 48.5227C13.796 33.4306 24.4534 19.4603 38.7918 15.4638C49.8523 12.3787 59.7384 16.1474 62.3677 17.2517C70.9042 20.8275 75.5317 26.5944 76.5308 27.874L76.5483 27.8915ZM67.0128 76.1477C74.0418 70.6613 76.0751 66.9101 78.5641 58.4964C81.9121 47.173 81.4388 36.5331 72.955 27.5936C54.8129 8.43482 26.2939 13.8511 16.8635 38.1282C11.9731 50.7137 15.9871 70.1003 28.1519 77.6727C40.8952 85.5956 55.1284 85.4203 67.0128 76.1477Z" fill="black"/>
</svg>
