<svg width="138" height="125" viewBox="0 0 138 125" fill="none" xmlns="http://www.w3.org/2000/svg">
<path d="M52.3675 33.0881C51.9685 33.5708 51.4844 36.3988 50.4317 37.8639C45.1088 45.2733 37.1087 50.8381 31.0679 57.4844C30.5477 58.0524 28.1809 60.3931 28.792 60.9944C30.1149 61.2901 31.4962 60.6389 32.6881 60.6297C33.5514 60.6286 34.0649 60.6157 34.5574 60.5829C35.8514 60.5505 36.7943 60.4446 36.917 60.421C41.9213 59.9874 48.2245 65.4614 48.2245 65.4614C60.8304 76.3888 86.1357 99.5155 93.6524 106.665C95.8001 108.708 98.167 110.478 100.214 112.626C103.401 115.937 106.101 120.351 109.785 123.013C111.455 122.395 113.606 121.293 114.073 119.391C114.855 116.144 109.858 112.795 108.543 111.164C96.5756 96.1711 83.6845 82.065 71.5397 67.3853C62.0447 55.9278 57.9585 53.6253 55.608 37.7343C55.4087 36.3417 55.8313 34.3374 55.4538 33.2164C55.0548 32.0548 52.9257 32.3958 52.387 33.0465L52.3675 33.0881ZM40.2584 55.9594C44.3562 52.1571 48.475 48.3748 52.5728 44.5726C53.0093 44.7672 54.756 48.8548 54.9604 49.6307C56.248 54.2642 55.6415 53.8478 58.5646 58.132C65.1144 67.7106 74.311 77.9217 81.6912 87.0067C84.0453 89.9075 86.6408 92.5968 88.9142 95.5613L77.3991 85.511C67.6362 76.4856 57.7607 67.0725 47.5577 58.5309C45.1313 57.6667 42.6843 56.803 40.2584 55.9594Z" fill="black"/>
<path d="M21.3899 25.0543L30.0609 13.4861C34.4786 16.9381 38.8963 20.4106 43.314 23.8625L44.2181 40.321C41.1154 43.5675 38.0128 46.8346 34.9306 50.0811C27.9445 49.7112 20.9584 49.3414 13.9723 48.9715C19.0886 42.047 24.2049 35.1225 29.3212 28.1981C30.6773 28.1981 31.7869 30.6843 32.3417 31.7117C33.2458 33.3966 36.4101 39.1293 33.6362 40.1361C29.7527 41.5539 30.6157 36.5814 28.2938 35.2047C27.8212 36.7047 21.9036 44.5949 22.8898 45.499C25.9309 45.8894 28.9719 46.3003 32.0335 46.6908C34.3348 44.0401 36.6361 41.4101 38.9168 38.7594C38.6908 34.8349 38.4648 30.9103 38.2593 27.0063C38.1155 26.5543 32.691 21.6434 32.0129 21.1914C31.5814 20.9037 31.2527 20.5955 30.6773 20.8215C28.2527 23.9036 25.8076 27.0269 23.3624 30.2117C20.7735 33.602 18.2256 36.9718 15.7599 40.3005C15.9037 31.9582 16.027 23.6365 16.1708 15.2943C13.4997 14.5135 10.7874 13.671 8.0135 12.808C5.28069 11.945 2.60952 11.0615 0 10.1574C0.96573 8.43142 1.93146 6.72598 2.89719 5C7.17106 6.49996 11.486 7.97938 15.8421 9.45879C17.6708 10.0752 19.4995 10.6916 21.3282 11.3081C21.3693 15.8901 21.3899 20.4722 21.431 25.0543H21.3899Z" fill="black"/>
<path d="M119.752 12.7583C125.477 14.4291 131.181 16.1204 136.906 17.7912C136.508 19.3099 135.923 21.4852 135.13 24.091C132.98 31.2314 131.156 34.4077 130.675 36.2342C129.044 42.3291 119.617 41.2778 114.538 42.0347C111.948 42.4129 109.454 43.8805 106.682 43.5181L104.824 41.0847L98.2497 23.4444C98.6639 22.7682 99.1569 22.7911 99.8354 22.6916C104.359 22.117 113.275 22.4879 117.957 22.9415C121.305 23.2655 121.956 24.5631 122.345 25.017C124.654 27.7812 123.194 32.2537 122.861 33.2179C118.728 33.6916 114.596 34.1857 110.443 34.6593C110.263 33.59 110.168 31.9868 111.118 31.0461C112.976 29.1645 117.239 31.4037 118.604 29.6431C118.935 29.2131 119.226 28.3515 118.577 26.5197C113.83 26.785 109.082 27.0297 104.334 27.2949C103.798 27.8061 108.042 38.3054 109.438 38.7641L125.808 35.6153L130.215 20.4925C126.11 19.5485 121.801 18.398 117.307 17.0001C114.968 16.2699 112.732 15.5197 110.558 14.7286C112.663 12.6632 114.995 10.5373 117.574 8.41247C121.534 5.12299 125.41 2.40844 128.996 0.144569C131.79 0.301586 134.604 0.479247 137.398 0.636265C134.205 2.36775 130.722 4.46772 127.115 6.99861C124.393 8.91725 121.939 10.8577 119.752 12.7378L119.752 12.7583Z" fill="black"/>
<path d="M74 69.5C79.9878 62.0194 87.4821 52.4906 93.4699 45.0099C94.3968 45.8687 95.3699 46.7471 96.3643 47.6022C99.35 50.2118 102.32 52.534 105.21 54.6169C102.431 54.1681 99.4926 57.8943 97.1915 59.6138C92.7862 62.9315 85.423 69.1099 81.5 73C79.5273 74.9456 79.9873 75.4267 82 78C83.3804 77.2165 86.5964 73.7916 89.4982 71.9068C100.867 64.5576 102.389 60.5308 109.491 58.6415C113.854 57.4759 117.667 57.8247 117.869 56.5506C118.005 55.7232 116.429 54.9659 113.67 53.2085C110.912 51.4732 108.323 49.5293 105.735 47.5854C102.37 45.0628 91.3718 36.2359 89.1682 33.4734C88.1026 32.1346 88.5928 29.9142 86.3639 30.8763C82.6348 32.4954 87.1086 39.2578 87.4087 41.0589C88.1372 45.3635 76.7429 57.2794 74.305 61.9095C74.0799 62.3427 70.3872 66.218 70.5 67.4751C70.6212 68.887 72.1597 68.9912 73 69.5L74 69.5Z" fill="black"/>
<path d="M31.8543 124.824C32.1785 124.845 32.4428 124.812 32.6313 124.782C32.9391 124.497 33.4261 124.01 34.1185 123.455C34.6475 123.043 35.1576 122.631 35.6267 122.165C39.1653 118.692 41.9562 114.397 45.2571 110.745C50.6748 104.753 56.4292 99.0124 62.2015 93.2512C63.7532 91.709 69.2437 87.4216 69.8994 85.8317C70.9405 83.2807 67.4677 83.7363 65.879 84.5895C64.9371 85.1008 58.9785 91.6398 58.2602 91.0067L64.7228 79.3548L63.7497 77.8718C62.7326 76.9861 60.1579 80.0035 59.5916 80.7825C51.4033 92.5081 42.9568 104.382 33.6029 115.288C32.8342 116.193 29.1527 119.481 29.0355 119.775C28.8983 120.051 28.3703 122.248 29.6057 123.659C29.9096 124.008 30.6899 124.733 31.8164 124.826L31.8543 124.824Z" fill="black"/>
</svg>
