<svg width="110" height="193" viewBox="0 0 110 193" fill="none" xmlns="http://www.w3.org/2000/svg">
<path d="M60.7753 0C60.1668 22.9125 59.5583 45.9015 59.0258 68.814C59.7104 68.9668 77.5855 71.869 78.3461 72.0218C78.4983 72.0218 87.1696 73.4729 87.3217 73.5493C88.2345 79.812 89.2233 86.0748 90.1361 92.4139C71.1961 103.641 52.3322 114.868 33.3922 126.095L29.5129 148.932C34.1528 156.264 38.7927 163.596 43.4327 170.928C52.7886 170.851 62.2205 170.698 71.5764 170.622C75.7599 159.777 79.8674 148.855 84.0509 138.01C77.3573 138.163 70.7397 138.239 64.0461 138.392C61.3838 144.578 58.7216 150.688 56.0593 156.875C52.2561 153.59 48.4529 150.306 44.6497 147.022C45.7146 141.294 46.7795 135.49 47.8444 129.761C63.2854 121.971 78.7264 114.104 94.1675 106.314C99.1117 117.465 104.132 128.692 109.076 139.843C101.318 157.333 93.635 174.746 85.8765 192.236C65.7195 192.465 45.6385 192.695 25.4815 193L0 154.278C4.18353 140.759 8.291 127.165 12.4745 113.646C28.9044 105.169 45.3343 96.6909 61.8402 88.2897C50.3545 87.2968 38.7927 86.3039 27.307 85.311L60.7753 0Z" fill="black"/>
</svg>
