<svg width="85" height="120" viewBox="0 0 85 120" fill="none" xmlns="http://www.w3.org/2000/svg">
<path d="M83.5465 24.0181C83.2933 20.2305 82.8079 14.9489 81.8582 8.61523C81.4572 8.57315 80.2964 8.42585 78.8402 8.2996C54.2741 6.06913 9.74283 10.1513 7.59013 8.17335C7.50571 8.08918 6.89367 7.54208 6.09169 7.5C5.81732 7.5 5.47964 7.60521 5.01534 8.02605C3.5591 9.35171 3.0948 12.2555 2.96817 14.1283C2.37723 22.5662 3.1159 31.8247 2.65159 40.3047C2.50386 43.1665 1.74408 46.1965 1.59635 49.1003C0.85768 63.9982 2.31392 79.0223 1.25867 93.9412C0.731051 101.474 -1.18949 107.829 1.08983 115.53C1.42751 116.688 2.58828 117.845 3.5591 118.518C9.06747 117.34 14.1537 119.171 19.4933 119.592C22.047 119.781 32.5783 120.181 47.4361 119.907C57.0388 119.739 69.0264 119.234 82.8923 118.034C83.3566 113.637 83.8209 108.145 84.0953 101.769C84.243 98.2969 84.5174 92.1526 84.2852 84.2197C84.032 75.3609 83.2722 69.9321 83.2511 62.3148C83.23 57.4751 83.4832 58.3168 83.7365 50.447C83.9897 42.5352 84.2219 34.1604 83.5254 23.997L83.5465 24.0181ZM79.5577 46.8278C79.5577 46.8278 79.5366 46.8278 79.5155 46.8278C80.0009 79.5062 79.9798 103.473 79.5577 108.565C79.4522 109.744 79.1989 111.932 77.5739 113.447C76.2865 114.647 74.3659 115.067 71.4535 115.299C58.685 116.393 45.8955 115.215 33.127 114.962C29.7713 114.899 26.3313 115.194 22.9123 114.962C17.3617 114.626 11.8322 113.616 6.30274 113.068C4.82539 112.374 4.61435 108.481 4.55103 106.903C4.38219 102.547 5.31081 98.2548 5.56406 94.0464C6.04948 85.7347 6.11279 77.3389 5.88064 69.0483C5.35302 49.9841 5.92285 37.1484 6.38715 29.8257C6.42936 29.1103 6.68262 26.6484 6.87257 23.2606C7.10472 18.8628 7.12582 15.2014 7.10472 12.6553C24.1152 11.5191 42.3076 11.1403 61.5342 11.8978C67.1481 12.1082 72.6564 12.4239 78.0382 12.8237C78.3548 17.4109 78.6291 22.0612 78.8613 26.7957C79.1989 33.6133 79.41 40.2837 79.5366 46.7857L79.5577 46.8278Z" fill="black"/>
<path d="M26.1651 42.7738C26.3847 34.8191 26.1251 28.6204 25.9853 25.1296C25.7258 18.7405 25.2865 13.1976 24.8472 8.776C23.4894 8.64906 22.1715 8.54328 20.8536 8.4375C20.8935 10.3627 21.0133 13.2399 21.4526 16.773C21.5525 17.6192 21.6523 18.2116 21.6523 18.2962C22.0517 23.416 22.0716 47.5127 21.6124 80.3681C21.6124 80.3681 21.6323 80.3681 21.6523 80.3681C21.5325 86.9053 21.3328 93.6118 21.0133 100.466C20.7937 105.226 20.5341 109.923 20.2346 114.514C17.5988 114.726 14.9031 114.916 12.1875 115.085C12.4071 115.339 12.6068 115.593 12.8065 115.826C13.2059 116.312 13.6252 116.799 14.0246 117.285C14.0645 117.328 14.1044 117.37 14.1444 117.412C14.3241 117.518 14.4838 117.645 14.6635 117.751C14.7634 117.814 14.8632 117.857 15.2825 118.005C17.2394 118.661 19.1563 118.766 21.1331 119.062C22.451 118.936 23.4894 118.809 23.8288 118.766C24.7274 112.398 25.1866 107.067 25.4262 103.28C26.0852 93.0829 25.8456 84.6416 25.6259 76.6869C25.3863 68.7957 25.1467 69.6208 25.1667 64.7549C25.2066 57.0964 25.9055 51.6382 26.1451 42.7315L26.1651 42.7738Z" fill="black"/>
<mask id="mask0_2629_1446" style="mask-type:luminance" maskUnits="userSpaceOnUse" x="4" y="10" width="18" height="105">
<path d="M6.27707 113.132C4.79964 112.436 4.58858 108.531 4.52526 106.948C4.35641 102.579 5.28508 98.2734 5.53835 94.0522C6.02379 85.7153 6.08711 77.2939 5.85495 68.9781C5.32729 49.856 5.89716 36.9812 6.36149 29.6363C6.40371 28.9187 6.65698 26.4492 6.84693 23.0511C7.0791 18.5978 7.12131 14.9042 7.0791 12.3503C9.27414 11.9915 11.5747 11.6538 13.9386 11.3583C16.3025 11.0629 18.582 10.8096 20.7981 10.6196C20.8614 12.1182 21.0092 14.2921 21.368 16.9304C21.4735 17.7746 21.579 18.3867 21.579 18.45C22.0011 23.5577 22.0223 47.5976 21.5368 80.3754C21.5368 80.3754 21.5579 80.3754 21.579 80.3754C21.4524 86.8972 21.2413 93.5879 20.9036 100.426C20.6715 105.175 20.3971 109.861 20.0805 114.441C19.4684 114.483 18.8141 114.525 18.1809 114.567C14.213 114.124 10.245 113.491 6.25596 113.111L6.27707 113.132Z" fill="white"/>
</mask>
<g mask="url(#mask0_2629_1446)">
<path d="M23.0563 184.07C21.79 185.484 18.8562 184.999 18.413 183.479C18.1808 182.698 18.6874 181.559 19.3628 180.989C21.0513 179.596 25.0403 181.875 23.0774 184.07H23.0563ZM16.9356 126.64C17.3577 128.709 21.0935 128.941 21.9799 126.978C22.9086 124.931 16.028 122.145 16.9356 126.64ZM17.3999 152.242C17.2944 152.39 17.6321 154.268 17.7376 154.543C18.9406 157.498 23.4362 154.733 22.0855 152.917C21.6422 152.327 19.9748 151.567 19.0673 151.672C18.814 151.693 17.4843 152.158 17.421 152.263L17.3999 152.242ZM21.7267 191.183C20.7347 187.722 14.6561 185.632 13.8541 184.893C13.4953 184.577 12.8199 184.64 12.8832 183.922C12.9254 183.374 16.5768 178.815 17.2733 178.013C17.9487 177.211 21.7478 173.348 21.8322 173.011C21.9377 172.462 21.3045 172.145 21.2412 171.702C20.9879 169.612 20.9246 166.531 20.8613 164.336C20.8191 163.344 21.6211 162.268 20.397 161.592L21.1357 160.262L12.9254 154.015C15.2682 151.229 17.6532 148.337 20.8191 146.058L21.389 139.114C21.2412 138.185 21.4734 134.492 20.7769 133.964C20.4814 133.732 19.8904 133.648 19.5105 133.394C18.3075 132.592 17.2099 131.685 16.0069 130.883C15.1415 130.292 10.6459 127.865 10.6459 127.105L17.9275 119.675L20.1015 119.612C20.1015 117.058 20.5869 114.504 20.8824 111.972C20.9668 111.233 20.7136 109.46 20.9457 108.911C21.3256 107.983 23.0985 107.94 20.7769 106.442C18.7085 105.133 16.8089 103.592 14.7827 102.368C13.5375 101.608 11.7646 101.06 10.9203 100.131C10.9203 99.73 15.0993 96.754 15.7958 96.1631C16.5345 95.551 17.5476 94.0947 18.2863 93.6514C18.6874 93.3982 19.215 93.4826 19.5527 93.2715C19.8904 93.0605 20.1226 90.6544 20.1648 90.0634C20.207 89.3036 20.2703 84.1959 20.0382 83.9426C19.616 83.7104 19.1095 83.6893 18.6663 83.4572C16.6612 82.4019 14.044 81.0933 12.1867 79.9747C11.9123 79.8058 11.0892 79.2782 11.1736 79.0249C13.3686 77.9274 14.5717 76.0911 16.1546 74.5715C17.2944 73.474 20.207 71.6377 20.1437 70.308C20.1015 68.7884 20.2703 67.8808 20.3759 66.4245C20.5658 63.9973 20.5236 61.4857 20.6291 59.0585C20.5236 58.6575 17.2944 56.7157 16.619 56.3569C15.5003 55.787 11.3635 54.4995 11.4057 53.4231C11.4057 53.2332 13.7696 50.8693 14.1495 50.5316C15.838 48.9908 19.5316 46.5003 20.3336 44.6641C21.009 43.0811 21.1779 36.9392 20.9035 35.1874C20.8613 34.9764 20.9035 34.7653 20.6502 34.6176C17.0411 33.6256 13.8118 31.5361 10.7304 29.7843C11.6379 28.9189 12.841 27.7581 14.2762 26.3651C16.7456 24.0012 17.2522 23.4946 17.9909 22.7348C19.8904 20.7508 20.9035 19.5056 21.6422 18.5136C22.1066 17.9015 22.4654 17.3949 22.6975 17.0361C17.3999 13.1104 14.5717 11.3586 14.1918 11.7807C13.8541 12.1606 15.5426 14.3134 19.2572 18.2181C15.036 21.8694 12.5455 26.5761 7.54332 29.6576L7.66996 31.3039C11.3213 32.7391 14.7616 34.4909 18.0331 36.4327C18.3919 36.8126 18.6029 38.4589 18.6452 39.071C18.7085 39.9996 18.6029 43.06 18.2652 43.8198C17.6321 45.2762 13.833 48.2521 12.4188 49.5396C11.7434 50.1517 11.1103 51.1859 10.3082 51.7769C9.14739 52.6633 7.4589 52.8744 7.50111 54.4362C7.52222 55.386 11.0047 56.3147 11.9334 56.7157C13.4953 57.3911 17.0833 58.8685 17.9275 60.0083C18.624 60.958 17.9909 65.2848 17.9064 66.6145C17.822 67.712 18.2019 69.3161 17.611 70.2658C17.3155 70.7302 16.6823 70.9834 16.3024 71.3845C14.0651 73.9172 12.3344 76.3022 8.91522 78.054C8.36646 78.3284 7.75439 78.1384 7.66996 78.645C7.35337 80.5867 7.85992 80.1435 9.25292 80.9244C12.06 82.4652 15.1204 83.816 17.5265 85.7366L17.6743 91.6253C15.8802 91.8574 15.9014 93.3348 14.9094 94.369C13.7274 95.6143 10.456 98.147 8.93633 99.2235C8.59863 99.4556 8.00766 99.4978 7.7966 99.7089C7.50111 100.025 7.16341 101.376 7.7966 101.651C12.0178 103.276 15.3948 105.766 18.9195 108.13L19.1306 108.51C17.8431 109.502 18.5185 111.402 18.3919 112.795C18.3497 113.365 18.012 116.763 17.8642 116.932C17.7798 117.037 17.1677 117.016 16.9567 117.185C16.7456 117.354 16.7456 117.839 16.5134 118.092C16.2813 118.367 15.9225 118.536 15.6903 118.81C13.9807 120.942 13.0942 122.292 10.9203 124.213C9.35845 125.585 6.84682 126.471 7.73328 128.54C8.99965 129.173 10.0127 130.081 11.1947 130.798C13.1153 131.98 18.5185 134.492 18.8984 136.455C19.0462 137.215 18.6663 137.763 18.6874 138.354C18.7507 140.148 19.1095 142.723 18.5396 144.496C18.413 144.897 15.4159 148.443 14.8672 149.013C13.7907 150.174 12.8832 150.955 11.7646 152.221C11.3424 152.706 9.97053 153.382 9.90721 153.888C9.69615 155.45 11.7012 156.105 12.9043 156.991C14.8672 158.447 16.7878 159.925 18.8562 161.297C18.3708 165.011 18.9406 168.747 19.0673 172.483C18.3497 174.15 16.7034 175.142 15.437 176.62C13.8752 178.477 12.06 181.812 10.2871 183.289C9.94942 183.564 9.35845 183.585 9.37956 183.944C9.61173 184.492 9.54841 185.358 10.0338 185.801C10.3082 186.054 10.9203 186.139 11.2791 186.392C14.0229 188.312 16.619 190.381 19.3205 192.365L19.8482 196.227C19.5527 197.979 19.9326 199.689 19.8271 201.441C19.806 201.82 19.0462 205.197 19.5316 205.24C21.79 205.134 21.9588 203.467 22.1066 202.01C22.4654 198.781 22.0643 196.143 21.8744 193.104C21.7689 191.31 21.8111 191.415 21.7689 191.267L21.7267 191.183ZM20.9457 75.6268C18.2019 74.3815 16.5768 76.26 17.1677 78.3706C17.5687 79.7425 20.7558 79.5525 21.7267 78.7083C22.9508 77.653 22.4232 76.3022 20.9246 75.6268H20.9457ZM18.6029 50.4894C18.0964 50.7849 17.7587 52.4523 17.9064 52.9588C18.223 54.0352 20.2914 54.8161 21.6 54.3518C23.0563 53.8453 23.183 50.2361 20.9457 50.0462C20.7347 50.0462 18.7507 50.405 18.6029 50.4894ZM18.4341 27.547C18.4341 27.547 17.6321 29.0244 17.611 29.1511C17.3788 30.8396 20.8824 31.3461 21.7055 30.1853C23.1619 28.138 20.0382 25.8374 18.4341 27.547ZM21.9799 99.8355C21.6422 98.8858 19.9748 97.746 18.7085 98.4636C17.9064 98.9069 17.6321 100.553 17.9064 101.25C18.3708 102.432 22.8875 102.453 21.9799 99.8355Z" fill="black"/>
<path d="M0.851757 173.243C2.11813 174.657 5.05188 174.172 5.49511 172.652C5.72728 171.871 5.22073 170.731 4.54533 170.162C2.85684 168.769 -1.13222 171.048 0.830651 173.243H0.851757ZM6.97254 115.813C6.55042 117.882 2.81463 118.114 1.92817 116.151C0.9995 114.104 7.8801 111.318 6.97254 115.813ZM6.5082 141.415C6.61373 141.563 6.27604 143.441 6.1705 143.715C4.96745 146.67 0.471847 143.905 1.82264 142.09C2.26587 141.499 3.93325 140.74 4.84082 140.845C5.09409 140.866 6.42378 141.331 6.4871 141.436L6.5082 141.415ZM2.16034 180.356C4.12321 178.351 7.73236 176.177 10.0329 174.066C10.3917 173.75 11.0671 173.813 11.0038 173.095C10.9616 172.547 7.31024 167.988 6.61373 167.186C5.93834 166.384 2.13923 162.521 2.05481 162.183C1.94928 161.635 2.58246 161.318 2.64578 160.875C2.89905 158.785 2.96237 155.704 3.02569 153.509C3.0679 152.517 2.26587 151.44 3.49002 150.765L2.75131 149.435L10.9616 143.188C8.61882 140.402 6.23382 137.51 3.0679 135.231L2.49804 128.287C2.64578 127.358 2.41361 123.665 3.11011 123.137C3.4056 122.905 3.99657 122.82 4.37648 122.567C5.57953 121.765 6.67705 120.858 7.8801 120.056C8.74545 119.465 13.2411 117.037 13.2411 116.278L5.95944 108.848L3.78551 108.785C3.78551 106.231 3.30007 103.677 3.00458 101.144C2.92016 100.406 3.17343 98.6328 2.94127 98.084C2.56135 97.1554 0.788439 97.1131 3.11011 95.6146C5.17852 94.306 7.07807 92.7653 9.10426 91.5411C10.3495 90.7813 12.1224 90.2325 12.9667 89.3039C12.9667 88.9029 8.78767 85.9269 8.09116 85.3359C7.35245 84.7238 6.33935 83.2675 5.60064 82.8243C5.17852 82.571 4.67197 82.6554 4.33427 82.4444C3.99657 82.2333 3.7644 79.8272 3.72219 79.2362C3.67998 78.4764 3.61666 73.3687 3.84883 73.1155C4.27095 72.8833 4.7775 72.8622 5.22073 72.63C7.22581 71.5747 9.84297 70.2661 11.7003 69.1475C11.9747 68.9786 12.7978 68.451 12.7134 68.1977C10.5184 67.1002 9.31532 65.264 7.73236 63.7443C6.59263 62.6468 3.67998 60.8106 3.7433 59.4809C3.78551 57.9613 3.61666 57.0537 3.51113 55.5974C3.32118 53.1702 3.36339 50.6585 3.25786 48.2313C3.36339 47.8303 6.59263 45.8885 7.26802 45.5297C8.38665 44.9599 12.5235 43.6724 12.4812 42.596C12.4812 42.406 10.1174 40.0421 9.73744 39.7044C8.04895 38.1637 4.35538 35.6732 3.55334 33.8369C2.87795 32.254 2.7091 26.1121 2.98348 24.3603C3.02569 24.1492 2.98348 23.9381 3.23675 23.7904C6.8459 22.7984 10.0751 20.7089 13.1566 18.9571C13.1777 18.7038 10.0962 16.0655 9.61081 15.5379C8.80877 14.6936 8.13338 13.4906 7.33134 12.6464C6.99364 12.2875 5.19962 10.5146 4.73529 10.8945L4.98856 13.4062C2.3714 13.9971 2.11813 10.4724 1.99149 9.05831C1.80153 6.98991 1.99149 4.60491 2.24476 2.55762H3.99657C5.1152 3.90841 4.081 5.87128 4.62976 7.41203C6.10719 9.24826 7.94342 11.2745 10.1807 13.3429C12.2702 15.2635 14.3175 16.8465 16.1537 18.0917C16.006 18.6405 15.8582 19.1893 15.6894 19.7169C14.233 20.7511 12.629 21.8064 10.8772 22.8617C9.12536 23.917 7.43687 24.8246 5.83281 25.6055C5.474 25.9854 5.26294 27.6317 5.22073 28.2438C5.15741 29.1725 5.26294 32.2329 5.60064 32.9927C6.23382 34.449 10.0329 37.425 11.447 38.7124C12.1224 39.3245 12.7556 40.3587 13.5577 40.9497C14.7185 41.8362 16.407 42.0472 16.3648 43.6091C16.3437 44.5588 12.8612 45.4875 11.9325 45.8885C10.3706 46.5639 6.78258 48.0414 5.93834 49.1811C5.24183 50.1309 5.87502 54.4576 5.95944 55.7873C6.04387 56.8848 5.66396 58.4889 6.25493 59.4387C6.55041 59.903 7.1836 60.1563 7.56351 60.5573C9.80076 63.09 11.5315 65.475 14.9507 67.2268C15.4994 67.5012 16.1115 67.3113 16.1959 67.8178C16.5125 69.7596 16.006 69.3164 14.613 70.0973C11.8058 71.638 8.74545 72.9888 6.33935 74.9095L6.19161 80.7981C7.98563 81.0303 7.96453 82.5077 8.95651 83.5419C10.1385 84.7872 13.4099 87.3199 14.9296 88.3963C15.2673 88.6285 15.8582 88.6707 16.0693 88.8817C16.3648 89.1983 16.7025 90.5491 16.0693 90.8235C11.8481 92.4487 8.47107 94.9392 4.94635 97.3031L4.73529 97.683C6.02276 98.675 5.34736 100.575 5.474 101.968C5.51621 102.537 5.85391 105.936 6.00166 106.104C6.08608 106.21 6.69816 106.189 6.90922 106.358C7.12028 106.526 7.12028 107.012 7.35245 107.265C7.58462 107.54 7.94342 107.708 8.17559 107.983C9.88519 110.115 10.7716 111.465 12.9456 113.386C14.5074 114.758 17.0191 115.644 16.1326 117.713C14.8662 118.346 13.8531 119.253 12.6712 119.971C10.7505 121.153 5.34736 123.665 4.96745 125.628C4.81971 126.387 5.19962 126.936 5.17852 127.527C5.1152 129.321 4.75639 131.896 5.32626 133.669C5.4529 134.07 8.44997 137.616 8.99873 138.186C10.0751 139.347 10.9827 140.127 12.1013 141.394C12.5235 141.879 13.8954 142.555 13.9587 143.061C14.1697 144.623 12.1646 145.277 10.9616 146.164C8.99873 147.62 7.07807 149.098 5.00967 150.469C5.49511 154.184 4.90414 157.92 4.7986 161.656C5.51621 163.323 7.16249 164.315 8.42886 165.793C9.99072 167.65 11.8058 170.985 13.5788 172.462C13.9165 172.736 14.5074 172.758 14.4863 173.116C14.2542 173.665 14.3175 174.53 13.832 174.974C13.5577 175.227 12.9456 175.311 12.5868 175.565C9.84297 177.485 7.24692 179.554 4.54533 181.538L4.01768 185.4C4.31316 187.152 3.93325 188.862 4.03878 190.613C4.05989 190.993 4.81971 194.37 4.33427 194.412C2.07591 194.307 1.90706 192.64 1.75932 191.183C1.44273 188.397 2.3714 184.704 1.99149 182.276C1.84375 181.327 0.978394 181.58 2.09702 180.44L2.16034 180.356ZM2.96237 64.7996C5.70617 63.5544 7.33134 65.4328 6.74037 67.5434C6.33935 68.9153 3.15233 68.7254 2.18144 67.8811C0.957288 66.8258 1.48494 65.475 2.98348 64.7996H2.96237ZM5.28405 39.6411C5.79059 39.9366 6.12829 41.604 5.98055 42.1105C5.66396 43.1869 3.59556 43.9679 2.28698 43.5035C0.830651 42.997 0.704014 39.3878 2.94127 39.1979C3.15233 39.1979 5.1363 39.5567 5.28405 39.6411ZM5.4529 16.7198C5.4529 16.7198 6.25493 18.1973 6.27604 18.3239C6.5082 20.0124 3.00458 20.5189 2.18144 19.3581C0.72512 17.3108 3.84883 15.0102 5.4529 16.7198ZM1.92817 89.0084C2.26587 88.0586 3.93325 86.9189 5.19962 87.6365C6.00166 88.0797 6.27603 89.726 6.00166 90.4225C5.53732 91.6044 1.02061 91.6255 1.92817 89.0084Z" fill="black"/>
</g>
<path d="M5.625 6.84493C29.4436 4.56982 53.2622 2.2751 77.0808 0L81.9706 9.375H6.20333C6.01055 8.53164 5.81778 7.68828 5.625 6.82531V6.84493Z" fill="black"/>
</svg>
